<svg width="267" height="25" viewBox="0 0 267 25" fill="none" xmlns="http://www.w3.org/2000/svg">
<path d="M0 25V0H15.4762L25.3401 8.89571L35.2041 0H50V25H0Z" fill="white"/>
<path d="M266.539 9.99994H256.002V24.9999H244.96V9.99994H234.423V0H266.539V9.99994Z" fill="white"/>
<path d="M115.374 0H126.584L139.336 24.9999H126.809L125.856 22.7173H115.29L114.309 24.9999H102.595L115.374 0ZM118.401 15.4709H122.801L120.615 10.2536L118.401 15.4709Z" fill="white"/>
<path d="M72.0006 14.7825V24.9999H60.9589V0H69.6746L80.9125 10.2536L92.0664 0H100.698V24.9999H89.6282V14.7825L80.8284 22.4999L72.0006 14.7825Z" fill="white"/>
<rect x="141.234" width="11.0416" height="24.9998" fill="white"/>
<rect x="219.325" width="11.0416" height="24.9998" fill="white"/>
<path d="M167.265 17.8281H183.715V25H156.223V0H167.265V17.8281Z" fill="white"/>
<path d="M215.267 7.17188H198.817V10.1807H211.83V15.3984H198.817V25H187.776V15.3984H187.773V10.1807H187.776V0H215.267V7.17188Z" fill="white"/>
</svg>
