<svg width="231" height="50" viewBox="0 0 231 50" fill="none" xmlns="http://www.w3.org/2000/svg">
<path d="M31.5275 0C41.7286 0 49.9981 8.26959 49.9981 18.4707V31.5275C49.9981 41.7286 41.7286 49.9982 31.5275 49.9982H18.4707C8.26959 49.9982 1.48768e-07 41.7286 0 31.5275V18.4707C0 8.26959 8.26959 1.48749e-07 18.4707 0H31.5275ZM12.4995 17.9463V30.7099L37.4986 37.4989V20.972L24.9991 24.6026V12.4998L12.4995 17.9463Z" fill="white"/>
<path d="M62.4551 15.421H72.1846V31.4433H85.2122V37.1146H62.4551V15.421Z" fill="white"/>
<path d="M109.544 28.6231C109.544 28.7264 109.503 29.2739 109.42 30.2656H93.7539C94.0837 30.9061 94.6334 31.402 95.403 31.7532C96.1725 32.0838 97.1345 32.2491 98.2888 32.2491C99.2783 32.2491 100.103 32.1561 100.762 31.9701C101.45 31.7842 102.192 31.4639 102.989 31.0094L107.853 34.6973C105.655 36.5155 102.37 37.4245 98.0003 37.4245C95.2793 37.4245 92.8881 37.0526 90.8268 36.3089C88.7655 35.5444 87.1714 34.4907 86.0445 33.1478C84.9176 31.8048 84.3542 30.2966 84.3542 28.6231C84.3542 26.9289 84.9039 25.4207 86.0033 24.0984C87.1301 22.7555 88.6555 21.7121 90.5794 20.9684C92.5308 20.2246 94.7159 19.8527 97.1345 19.8527C99.4157 19.8527 101.491 20.1936 103.36 20.8754C105.256 21.5572 106.754 22.5592 107.853 23.8815C108.98 25.2038 109.544 26.7843 109.544 28.6231ZM97.2169 24.6253C96.255 24.6253 95.4579 24.8216 94.8258 25.2141C94.1937 25.6067 93.7814 26.1645 93.589 26.8876H100.845C100.653 26.1852 100.24 25.6377 99.6081 25.2451C98.976 24.8319 98.1789 24.6253 97.2169 24.6253Z" fill="white"/>
<path d="M127.037 36.5258C125.635 37.125 123.725 37.4245 121.307 37.4245C118.146 37.4245 115.713 36.8564 114.009 35.72C112.305 34.563 111.453 32.8379 111.453 30.5446V26.2058H108.361V21.0923H111.453V16.3507H120.771V21.0923H125.388V26.2058H120.771V30.4826C120.771 30.9991 120.949 31.402 121.307 31.6912C121.664 31.9805 122.131 32.1251 122.708 32.1251C123.505 32.1251 124.206 31.9701 124.811 31.6602L127.037 36.5258Z" fill="white"/>
<path d="M143.536 36.5258C142.134 37.125 140.224 37.4245 137.805 37.4245C134.645 37.4245 132.212 36.8564 130.508 35.72C128.804 34.563 127.952 32.8379 127.952 30.5446V26.2058H124.86V21.0923H127.952V16.3507H137.269V21.0923H141.887V26.2058H137.269V30.4826C137.269 30.9991 137.448 31.402 137.805 31.6912C138.163 31.9805 138.63 32.1251 139.207 32.1251C140.004 32.1251 140.705 31.9701 141.31 31.6602L143.536 36.5258Z" fill="white"/>
<path d="M167.213 28.6231C167.213 28.7264 167.172 29.2739 167.089 30.2656H151.423C151.753 30.9061 152.303 31.402 153.072 31.7532C153.842 32.0838 154.804 32.2491 155.958 32.2491C156.947 32.2491 157.772 32.1561 158.432 31.9701C159.119 31.7842 159.861 31.4639 160.658 31.0094L165.523 34.6973C163.324 36.5155 160.039 37.4245 155.669 37.4245C152.948 37.4245 150.557 37.0526 148.496 36.3089C146.435 35.5444 144.84 34.4907 143.714 33.1478C142.587 31.8048 142.023 30.2966 142.023 28.6231C142.023 26.9289 142.573 25.4207 143.672 24.0984C144.799 22.7555 146.325 21.7121 148.249 20.9684C150.2 20.2246 152.385 19.8527 154.804 19.8527C157.085 19.8527 159.16 20.1936 161.029 20.8754C162.925 21.5572 164.423 22.5592 165.523 23.8815C166.649 25.2038 167.213 26.7843 167.213 28.6231ZM154.886 24.6253C153.924 24.6253 153.127 24.8216 152.495 25.2141C151.863 25.6067 151.451 26.1645 151.258 26.8876H158.514C158.322 26.1852 157.909 25.6377 157.277 25.2451C156.645 24.8319 155.848 24.6253 154.886 24.6253Z" fill="white"/>
<path d="M176.956 21.9911C178.605 20.5655 181.037 19.8527 184.253 19.8527V26.0509C183.511 25.9682 182.824 25.9269 182.191 25.9269C179.003 25.9269 177.409 27.1459 177.409 29.5838V37.1146H168.092V20.1626H176.956V21.9911Z" fill="white"/>
<path d="M196.545 37.4245C194.044 37.4245 191.791 37.0526 189.784 36.3089C187.805 35.5444 186.252 34.5011 185.126 33.1788C183.999 31.8358 183.435 30.3173 183.435 28.6231C183.435 26.9289 183.999 25.4207 185.126 24.0984C186.252 22.7555 187.805 21.7121 189.784 20.9684C191.791 20.2246 194.044 19.8527 196.545 19.8527C199.074 19.8527 201.328 20.2246 203.307 20.9684C205.313 21.7121 206.866 22.7555 207.965 24.0984C209.092 25.4207 209.655 26.9289 209.655 28.6231C209.655 30.3173 209.092 31.8358 207.965 33.1788C206.866 34.5011 205.313 35.5444 203.307 36.3089C201.328 37.0526 199.074 37.4245 196.545 37.4245ZM196.545 31.9701C197.617 31.9701 198.497 31.6809 199.184 31.1024C199.871 30.5032 200.215 29.6768 200.215 28.6231C200.215 27.5694 199.871 26.7533 199.184 26.1748C198.497 25.5963 197.617 25.3071 196.545 25.3071C195.473 25.3071 194.594 25.5963 193.907 26.1748C193.22 26.7533 192.876 27.5694 192.876 28.6231C192.876 29.6768 193.22 30.5032 193.907 31.1024C194.594 31.6809 195.473 31.9701 196.545 31.9701Z" fill="white"/>
<path d="M219.333 37.4245C217.409 37.4245 215.512 37.2696 213.644 36.9597C211.775 36.6498 210.263 36.2469 209.109 35.751L211.665 31.1334C212.709 31.6086 213.946 31.9805 215.375 32.2491C216.804 32.5176 218.192 32.6519 219.539 32.6519C220.611 32.6519 221.353 32.59 221.765 32.466C222.205 32.3214 222.425 32.1148 222.425 31.8462C222.425 31.5776 222.15 31.3916 221.6 31.2883C221.078 31.185 220.212 31.0817 219.003 30.9784C217.162 30.8131 215.595 30.6065 214.303 30.3586C213.011 30.09 211.871 29.5838 210.881 28.8401C209.919 28.0963 209.438 27.0323 209.438 25.648C209.438 24.553 209.878 23.5716 210.758 22.7039C211.637 21.8361 212.943 21.144 214.674 20.6275C216.433 20.1109 218.536 19.8527 220.982 19.8527C222.686 19.8527 224.349 19.9767 225.97 20.2246C227.619 20.4518 229.021 20.7927 230.175 21.2473L227.619 25.8649C225.641 25.0385 223.469 24.6253 221.106 24.6253C219.072 24.6253 218.055 24.8939 218.055 25.4311C218.055 25.6996 218.33 25.8959 218.879 26.0199C219.429 26.1232 220.295 26.2265 221.477 26.3298C223.318 26.4951 224.871 26.712 226.135 26.9806C227.427 27.2492 228.554 27.7554 229.516 28.4992C230.505 29.2429 231 30.307 231 31.6912C231 32.7449 230.56 33.7056 229.681 34.5734C228.801 35.4411 227.482 36.1332 225.723 36.6498C223.964 37.1663 221.834 37.4245 219.333 37.4245Z" fill="white"/>
</svg>
